<?xml version="1.0"?>
<svg xmlns="http://www.w3.org/2000/svg" id="icon" viewBox="0 0 128 128" width="512px" height="512px" class=""><g><path d="M16.05,25.146l9.163,96.337A6.094,6.094,0,0,0,31.28,127H96.72a6.094,6.094,0,0,0,6.067-5.517l9.164-96.337Z" fill="#d9e2e9" data-original="#D9E2E9" class="" style="fill:#D9E2E9"/><path d="M111.948,25.15l-9.165,96.328a6.084,6.084,0,0,1-6.059,5.517H31.279a6.1,6.1,0,0,1-6.07-5.517l-.141-1.541h63.6a6.084,6.084,0,0,0,6.059-5.517l8.494-89.269Z" fill="#c1cdd3" data-original="#C1CDD3" class=""/><path d="M96.72,128H31.28a7.066,7.066,0,0,1-7.062-6.423L15.055,25.24a1,1,0,0,1,1-1.095h95.9a1,1,0,0,1,1,1.095l-9.163,96.337A7.066,7.066,0,0,1,96.72,128ZM17.149,26.146l9.059,95.242A5.075,5.075,0,0,0,31.28,126H96.72a5.075,5.075,0,0,0,5.072-4.612l9.059-95.242Z" fill="#2f3a5a" data-original="#2F3A5A" class="" style="fill:#2F3A5A"/><rect x="7.991" y="9.387" width="112.017" height="17.398" rx="3.531" ry="3.531" fill="#d9e2e9" data-original="#D9E2E9" class="" style="fill:#D9E2E9"/><path d="M120.007,12.914V23.255a3.525,3.525,0,0,1-3.529,3.529H11.526A3.525,3.525,0,0,1,8,23.255V19.773H108.419a3.535,3.535,0,0,0,3.529-3.541V9.385h4.529A3.532,3.532,0,0,1,120.007,12.914Z" fill="#c1cdd3" data-original="#C1CDD3" class=""/><path d="M116.478,27.785H11.522a4.536,4.536,0,0,1-4.531-4.531V12.918a4.536,4.536,0,0,1,4.531-4.531H116.478a4.536,4.536,0,0,1,4.531,4.531V23.254A4.536,4.536,0,0,1,116.478,27.785ZM11.522,10.387a2.534,2.534,0,0,0-2.531,2.531V23.254a2.534,2.534,0,0,0,2.531,2.531H116.478a2.534,2.534,0,0,0,2.531-2.531V12.918a2.534,2.534,0,0,0-2.531-2.531Z" fill="#2f3a5a" data-original="#2F3A5A" class="" style="fill:#2F3A5A"/><path d="M42.306,45.015a3.934,3.934,0,0,0-3.934,3.934v58.03a3.934,3.934,0,0,0,7.868,0V48.95A3.934,3.934,0,0,0,42.306,45.015Z" fill="#c8cbd2" data-original="#C8CBD2" class="active-path" style="fill:#FFFFFF" data-old_color="#c8cbd2"/><path d="M42.307,111.913a4.94,4.94,0,0,1-4.935-4.934V48.95a4.934,4.934,0,1,1,9.868,0v58.03A4.939,4.939,0,0,1,42.307,111.913Zm0-65.9a2.938,2.938,0,0,0-2.935,2.934v58.03a2.934,2.934,0,0,0,5.868,0V48.95A2.938,2.938,0,0,0,42.307,46.016Z" fill="#2f3a5a" data-original="#2F3A5A" class="" style="fill:#2F3A5A"/><path d="M64,45.015a3.934,3.934,0,0,0-3.934,3.934v58.03a3.934,3.934,0,0,0,7.868,0V48.95A3.934,3.934,0,0,0,64,45.015Z" fill="#c8cbd2" data-original="#C8CBD2" class="active-path" style="fill:#FFFFFF" data-old_color="#c8cbd2"/><path d="M64,111.913a4.939,4.939,0,0,1-4.934-4.934V48.95a4.934,4.934,0,1,1,9.868,0v58.03A4.94,4.94,0,0,1,64,111.913Zm0-65.9a2.938,2.938,0,0,0-2.934,2.934v58.03a2.934,2.934,0,0,0,5.868,0V48.95A2.938,2.938,0,0,0,64,46.016Z" fill="#2f3a5a" data-original="#2F3A5A" class="" style="fill:#2F3A5A"/><path d="M85.694,45.015A3.934,3.934,0,0,0,81.76,48.95v58.03a3.934,3.934,0,0,0,7.868,0V48.95A3.934,3.934,0,0,0,85.694,45.015Z" fill="#c8cbd2" data-original="#C8CBD2" class="active-path" style="fill:#FFFFFF" data-old_color="#c8cbd2"/><path d="M85.693,111.913a4.939,4.939,0,0,1-4.934-4.934V48.95a4.934,4.934,0,1,1,9.868,0v58.03A4.94,4.94,0,0,1,85.693,111.913Zm0-65.9A2.938,2.938,0,0,0,82.76,48.95v58.03a2.934,2.934,0,0,0,5.868,0V48.95A2.938,2.938,0,0,0,85.693,46.016Z" fill="#2f3a5a" data-original="#2F3A5A" class="" style="fill:#2F3A5A"/><path d="M79.139,1H48.861a2.933,2.933,0,0,0-2.933,2.933V9.387H82.072V3.933A2.933,2.933,0,0,0,79.139,1Z" fill="#c1cdd3" data-original="#C1CDD3" class=""/><path d="M82.071,10.387H45.929a1,1,0,0,1-1-1V3.933A3.937,3.937,0,0,1,48.861,0H79.139a3.937,3.937,0,0,1,3.933,3.933V9.387A1,1,0,0,1,82.071,10.387Zm-35.143-2H81.071V3.933A1.935,1.935,0,0,0,79.139,2H48.861a1.935,1.935,0,0,0-1.933,1.933Z" fill="#2f3a5a" data-original="#2F3A5A" class="" style="fill:#2F3A5A"/></g> </svg>
